<svg height="54" viewBox="0 0 84 54" width="84" xmlns="http://www.w3.org/2000/svg"><path d="m6 45h38v-2h2v2h2v2h-2v2h-2v-2h-40v-2-34h-2v-2h2v-2h2v2h2v2h-2zm15-30h2v2h-2zm4 0h2v2h-2zm0 4h2v2h-2zm-4-8h2v2h-2zm-4 0h2v2h-2zm0-8h2v2h-2zm4 0h2v2h-2zm4 0h2v2h-2zm4 0h2v2h-2zm4 0h2v2h-2zm4 0h2v2h-2zm4 0h2v2h-2zm4 0h2v2h-2zm0 4h2v2h-2zm0 4h2v2h-2zm0 4h2v2h-2zm0 4h2v2h-2zm0 4h2v2h-2zm0 4h2v2h-2zm0 4h2v2h-2zm0 4h2v2h-2zm4 0h2v2h-2zm0-4h2v2h-2zm0-4h2v2h-2zm0-4h2v2h-2zm0-4h2v2h-2zm0-4h2v2h-2zm0-4h2v2h-2zm0-4h2v2h-2zm0-4h2v2h-2zm-32 4h2v2h-2zm4 0h2v2h-2zm4 0h2v2h-2zm4 0h2v2h-2zm4 0h2v2h-2zm4 0h2v2h-2zm4 0h2v2h-2zm-24 8h2v2h-2zm0 4h2v2h-2zm0 4h2v2h-2zm4 0h2v2h-2zm4 0h2v2h-2zm0-12h2v2h-2zm-4 8h2v2h-2zm16-4h2v2h-2zm4-2h2v6h-2zm-6-2h6v2h-6zm-2 2h2v6h-2zm-4-2h2v2h-2zm0 4h2v2h-2zm0 4h2v2h-2zm0 4h2v2h-2zm4 0h2v2h-2zm4 0h2v2h-2zm4 0h2v2h-2zm-6-4h6v2h-6zm-14 12h2v2h-2zm4 0h2v2h-2zm0 4h2v2h-2zm-4-8h2v2h-2zm-4 0h2v2h-2zm0 4h2v2h-2zm0 4h2v2h-2zm8-8h2v2h-2zm-4 8h2v2h-2zm16-4h2v2h-2zm4 0h2v2h-2zm0 4h2v2h-2zm-4-8h2v2h-2zm-4 0h2v2h-2zm-4 0h2v2h-2zm0 4h2v2h-2zm0 4h2v2h-2zm4-4h2v2h-2zm0 4h2v2h-2zm8-8h2v2h-2zm-4 8h2v2h-2zm5 6h2v2h-2zm-42-30h2v2h-2zm42 38h2v2h-2zm-34-38h2v2h-2z" fill="#3b71ff" fill-rule="evenodd"></path></svg>